#!OML:ASF I:\Actors\actors\Patient Classification 1\Patient 1\Session 1\Subject1.ASF
:FULLY-SPECIFIED
:DEGREES
566
root 0.902973 17.6749 7.94894 7.55258 1.00834 -9.93667
lowerback 1.52122 2.11768 6.87125
upperback 0.478613 2.92985 1.64192
thorax -0.101537 1.46955 -2.19171
lowerneck -13.6508 -6.78791 -4.454
upperneck 27.9667 -11.9328 10.964
head 12.5179 -4.47567 3.10071
rclavicle 2.69353e-014 5.76476e-014
rhumerus -20.0613 40.0406 -113.937
rradius 138.098
rwrist 22.6729
rhand -26.045 -41.0807
rfingers 7.12502
rthumb 0.502278 -71.0598
lclavicle 2.69353e-014 5.76476e-014
lhumerus -24.5543 -47.1383 119.003
lradius 141.013
lwrist 24.1515
lhand -24.9819 -28.0869
lfingers 7.12502
lthumb 1.52904 1.88737
rfemur -12.1995 16.6982 25.7715
rtibia 15.1217
rfoot -15.0398 -17.2588
rtoes -1.36101
lfemur -6.19561 -24.2754 -4.02191
ltibia 3.94482
lfoot -9.51757 31.9072
ltoes -7.50062
567
root 0.904968 17.675 7.93373 7.60283 1.0589 -10.0112
lowerback 1.57044 2.14473 6.9934
upperback 0.484273 2.97171 1.64767
thorax -0.113629 1.49026 -2.25554
lowerneck -13.6711 -6.77637 -4.27452
upperneck 27.7062 -11.8903 10.851
head 12.3912 -4.46048 3.02733
rclavicle -9.93923e-016 2.26615e-014
rhumerus -19.8534 40.1721 -113.76
rradius 137.938
rwrist 22.8733
rhand -26.0896 -41.3116
rfingers 7.12502
rthumb 0.459229 -71.2909
lclavicle -9.93923e-016 2.26615e-014
lhumerus -24.6447 -47.2771 119.107
lradius 140.962
lwrist 24.1707
lhand -25.0037 -28.0805
lfingers 7.12502
lthumb 1.50801 1.89396
rfemur -12.2976 16.7461 25.8157
rtibia 15.0989
rfoot -15.0346 -17.3047
rtoes -1.01555
lfemur -6.29576 -24.4132 -3.89056
ltibia 3.88293
lfoot -9.4981 32.0311
ltoes -7.44547
568
root 0.906789 17.6751 7.91942 7.62649 1.04569 -10.0184
lowerback 1.58388 1.96894 6.72659
upperback 0.587571 2.73042 1.89854
thorax -0.0613016 1.37288 -1.84683
lowerneck -13.8067 -6.68638 -4.50718
upperneck 27.3631 -11.623 10.7532
head 12.2609 -4.38623 3.06115
rclavicle -8.69683e-015 1.07344e-014
rhumerus -20.1373 40.922 -113.957
rradius 137.699
rwrist 23.9969
rhand -25.9729 -41.2094
rfingers 7.12502
rthumb 0.571897 -71.1884
lclavicle -8.69683e-015 1.07344e-014
lhumerus -24.1956 -46.7644 118.898
lradius 140.907
lwrist 23.9829
lhand -24.9615 -28.0158
lfingers 7.12502
lthumb 1.5488 1.95837
rfemur -12.3635 16.8186 25.7909
rtibia 15.0711
rfoot -15.0219 -17.3361
rtoes -0.835252
lfemur -6.35737 -24.5082 -3.86689
ltibia 3.87863
lfoot -9.53933 32.127
ltoes -7.38875
569
root 0.90844 17.6747 7.90497 7.65929 1.04515 -9.99644
lowerback 1.61613 2.06119 6.79546
upperback 0.598688 2.85605 1.80196
thorax -0.0492812 1.4364 -1.9859
lowerneck -13.5983 -6.84537 -4.41484
upperneck 26.8234 -11.8376 10.8507
head 12.0266 -4.48942 3.04214
rclavicle 2.49475e-014 -2.22639e-014
rhumerus -19.9886 40.4146 -114.006
rradius 137.833
rwrist 23.1
rhand -25.9354 -41.1638
rfingers 7.12502
rthumb 0.608136 -71.1427
lclavicle 2.49475e-014 -2.22639e-014
lhumerus -24.468 -46.9864 119.103
lradius 140.897
lwrist 23.8437
lhand -24.9733 -27.9093
lfingers 7.12502
lthumb 1.53733 2.06495
rfemur -12.4283 16.8778 25.7314
rtibia 15.0147
rfoot -14.9585 -17.4003
rtoes -0.648221
lfemur -6.44403 -24.5848 -3.86525
ltibia 3.88186
lfoot -9.47645 32.1822
ltoes -7.42784
570
root 0.911369 17.6737 7.89072 7.70925 1.08511 -9.99149
lowerback 1.64847 2.03096 6.77571
upperback 0.583795 2.81944 1.85545
thorax -0.0895833 1.41652 -1.92155
lowerneck -13.563 -6.81653 -4.64129
upperneck 26.6295 -11.7474 10.9666
head 11.9573 -4.46698 3.13552
rclavicle 2.34069e-014 7.03698e-014
rhumerus -20.4885 40.2832 -114.496
rradius 137.877
rwrist 23.7927
rhand -25.7205 -40.6653
rfingers 7.12502
rthumb 0.815704 -70.6435
lclavicle 2.34069e-014 7.03698e-014
lhumerus -24.6894 -46.942 119.393
lradius 140.909
lwrist 23.5458
lhand -25.0691 -27.8855
lfingers 7.12502
lthumb 1.44484 2.08934
rfemur -12.4785 16.9391 25.6859
rtibia 14.9101
rfoot -14.861 -17.5103
rtoes -0.60588
lfemur -6.55832 -24.647 -3.82774
ltibia 3.84649
lfoot -9.34868 32.2139
ltoes -7.48647
571
root 0.9141 17.6735 7.87674 7.7565 1.05674 -10.0025
lowerback 1.72618 2.01426 6.80558
upperback 0.557435 2.80625 1.89834
thorax -0.162219 1.40722 -1.89781
lowerneck -13.5479 -6.69447 -4.64897
upperneck 26.394 -11.5502 11.0107
head 11.8457 -4.38373 3.18053
rclavicle 2.68359e-014 1.86858e-014
rhumerus -21.4186 39.4543 -115.391
rradius 138.359
rwrist 23.9144
rhand -25.2535 -39.67
rfingers 7.12502
rthumb 1.26676 -69.646
lclavicle 2.68359e-014 1.86858e-014
lhumerus -24.9291 -46.9833 119.664
lradius 140.98
lwrist 23.4226
lhand -25.1314 -27.8933
lfingers 7.12502
lthumb 1.38467 2.08194
rfemur -12.5231 17.0234 25.6591
rtibia 14.8
rfoot -14.7295 -17.5813
rtoes -0.872605
lfemur -6.61932 -24.7999 -3.797
ltibia 3.78018
lfoot -9.23396 32.4067
ltoes -7.53468
572
root 0.916229 17.674 7.8642 7.80268 0.960604 -10.0514
lowerback 1.77377 2.05297 6.93024
upperback 0.564564 2.86356 1.88865
thorax -0.170106 1.43578 -1.97894
lowerneck -13.5515 -6.60598 -4.46713
upperneck 26.0457 -11.4191 11.0016
head 11.6858 -4.3208 3.15987
rclavicle 3.23025e-015 5.04913e-014
rhumerus -21.4501 39.4857 -115.433
rradius 138.403
rwrist 24.1308
rhand -25.2517 -39.656
rfingers 7.12502
rthumb 1.26851 -69.632
lclavicle 3.23025e-015 5.04913e-014
lhumerus -25.0809 -47.2115 119.768
lradius 141.048
lwrist 23.4616
lhand -25.1828 -27.829
lfingers 7.12502
lthumb 1.33504 2.14661
rfemur -12.5684 17.1449 25.6807
rtibia 14.6861
rfoot -14.5717 -17.6248
rtoes -1.31552
lfemur -6.59605 -25.037 -3.74019
ltibia 3.64777
lfoot -9.21165 32.727
ltoes -7.27103
573
root 0.919726 17.6749 7.85358 7.91389 0.880766 -10.0282
lowerback 1.74768 2.10752 7.03841
upperback 0.53963 2.93655 1.82248
thorax -0.166008 1.47193 -2.10681
lowerneck -13.5276 -6.56437 -4.11126
upperneck 25.6374 -11.3365 10.8032
head 11.4788 -4.28856 3.03169
rclavicle -1.11319e-014 2.74323e-014
rhumerus -21.4371 39.4251 -115.432
rradius 138.456
rwrist 24.1777
rhand -25.2663 -39.7193
rfingers 7.12502
rthumb 1.25435 -69.6953
lclavicle -1.11319e-014 2.74323e-014
lhumerus -25.2588 -47.4415 119.83
lradius 141.078
lwrist 23.4372
lhand -25.2041 -27.7002
lfingers 7.12502
lthumb 1.31449 2.27548
rfemur -12.6545 17.2702 25.5964
rtibia 14.527
rfoot -14.4234 -17.6882
rtoes -1.48637
lfemur -6.61025 -25.3006 -3.7433
ltibia 3.4685
lfoot -9.28938 33.0441
ltoes -6.80181
574
root 0.923787 17.6767 7.84472 8.06459 0.813947 -9.9098
lowerback 1.72356 2.12048 6.99638
upperback 0.453153 2.95551 1.77257
thorax -0.23967 1.47734 -2.13627
lowerneck -13.5849 -6.52915 -4.13012
upperneck 25.3894 -11.2336 10.7507
head 11.3828 -4.25759 3.0251
rclavicle 1.38652e-014 -2.18663e-014
rhumerus -21.5871 39.3538 -115.531
rradius 138.529
rwrist 23.9467
rhand -25.2549 -39.6339
rfingers 7.12502
rthumb 1.26535 -69.6098
lclavicle 1.38652e-014 -2.18663e-014
lhumerus -25.4737 -47.4855 119.96
lradius 141.09
lwrist 23.2705
lhand -25.1336 -27.6819
lfingers 7.12502
lthumb 1.38254 2.29337
rfemur -12.7431 17.3969 25.3853
rtibia 14.3094
rfoot -14.3084 -17.7678
rtoes -1.34993
lfemur -6.64935 -25.6683 -3.85583
ltibia 3.25969
lfoot -9.29877 33.4547
ltoes -6.50433
575
root 0.926252 17.6791 7.83756 8.20372 0.716264 -9.84399
lowerback 1.71213 2.09193 6.88798
upperback 0.362743 2.91993 1.80045
thorax -0.336738 1.45477 -2.04931
lowerneck -13.6398 -6.38907 -4.05342
upperneck 25.1654 -10.9886 10.6314
head 11.2722 -4.16018 3.00046
rclavicle -1.50082e-014 -3.18055e-015
rhumerus -21.8316 39.377 -115.743
rradius 138.598
rwrist 23.6928
rhand -25.1992 -39.2117
rfingers 7.12502
rthumb 1.31913 -69.1874
lclavicle -1.50082e-014 -3.18055e-015
lhumerus -25.584 -47.417 120.119
lradius 141.043
lwrist 23.049
lhand -25.0601 -27.8623
lfingers 7.12502
lthumb 1.45348 2.11252
rfemur -12.8037 17.5664 25.2395
rtibia 14.0671
rfoot -14.2046 -17.8253
rtoes -1.36669
lfemur -6.63507 -26.0791 -3.91373
ltibia 3.00456
lfoot -9.24133 33.9464
ltoes -6.24745
576
root 0.927793 17.6824 7.83158 8.31026 0.621598 -9.81866
lowerback 1.69566 2.06315 6.80963
upperback 0.297165 2.88273 1.83738
thorax -0.404232 1.43291 -1.96873
lowerneck -13.7979 -6.34161 -4.16521
upperneck 25.0685 -10.9335 10.8147
head 11.2819 -4.12269 3.08911
rclavicle -8.39865e-015 1.98785e-015
rhumerus -21.9825 39.3973 -115.956
rradius 138.657
rwrist 23.5795
rhand -25.203 -38.6562
rfingers 7.12502
rthumb 1.31555 -68.6319
lclavicle -8.39865e-015 1.98785e-015
lhumerus -25.5659 -47.4011 120.245
lradius 140.993
lwrist 22.9908
lhand -25.1113 -28.1097
lfingers 7.12502
lthumb 1.40412 1.86538
rfemur -12.8017 17.764 25.1561
rtibia 13.7831
rfoot -14.0867 -17.887
rtoes -1.28723
lfemur -6.55734 -26.5109 -3.94061
ltibia 2.72347
lfoot -9.25727 34.4502
ltoes -5.79076
577
root 0.92994 17.6864 7.82602 8.41439 0.570397 -9.7684
lowerback 1.69258 2.03913 6.75699
upperback 0.221398 2.85385 1.84311
thorax -0.48605 1.41464 -1.93526
lowerneck -13.7681 -6.30942 -3.97309
upperneck 24.611 -10.8441 10.6916
head 11.075 -4.09721 3.01779
rclavicle -5.71506e-015 -1.86858e-014
rhumerus -21.0914 40.3048 -115.363
rradius 138.318
rwrist 23.5444
rhand -25.5895 -39.3892
rfingers 7.12502
rthumb 0.942214 -69.3668
lclavicle -5.71506e-015 -1.86858e-014
lhumerus -25.4405 -47.4259 120.317
lradius 140.996
lwrist 23.0802
lhand -25.0771 -28.1259
lfingers 7.12502
lthumb 1.43706 1.849
rfemur -12.7978 17.9584 25.0413
rtibia 13.4958
rfoot -13.9862 -17.9966
rtoes -0.754446
lfemur -6.45685 -27.1004 -4.00419
ltibia 2.4034
lfoot -9.3925 35.0494
ltoes -4.95352
578
root 0.931894 17.6889 7.8208 8.54792 0.539908 -9.73712
lowerback 1.68502 1.96771 6.6795
upperback 0.134717 2.76203 1.89728
thorax -0.585271 1.36441 -1.83759
lowerneck -13.7824 -6.23058 -3.68642
upperneck 24.143 -10.6823 10.465
head 10.8566 -4.04113 2.90359
rclavicle 1.33683e-014 1.86858e-014
rhumerus -20.8151 40.8104 -115.272
rradius 138.297
rwrist 23.6202
rhand -25.6807 -39.5728
rfingers 7.12502
rthumb 0.854181 -69.5509
lclavicle 1.33683e-014 1.86858e-014
lhumerus -25.1749 -47.3699 120.31
lradius 140.992
lwrist 23.0603
lhand -24.9266 -27.93
lfingers 7.12502
lthumb 1.58245 2.0439
rfemur -12.8721 18.0946 24.9395
rtibia 13.2824
rfoot -13.8751 -18.0961
rtoes -0.495944
lfemur -6.37762 -27.8104 -4.02036
ltibia 2.0537
lfoot -9.62003 35.7332
ltoes -3.88779
